<?xml version="1.0" standalone="no"?>
<!DOCTYPE svg PUBLIC "-//W3C//DTD SVG 20010904//EN"
 "http://www.w3.org/TR/2001/REC-SVG-20010904/DTD/svg10.dtd">
<svg version="1.0" xmlns="http://www.w3.org/2000/svg"
 width="600.000000pt" height="973.000000pt" viewBox="0 0 600.000000 973.000000"
 preserveAspectRatio="xMidYMid meet">

<g transform="translate(0.000000,973.000000) scale(0.100000,-0.100000)"
fill="#000000" stroke="none">
<path d="M0 4865 l0 -4865 3000 0 3000 0 0 4865 0 4865 -3000 0 -3000 0 0
-4865z m2616 4054 c32 -36 53 -43 74 -24 17 16 25 13 132 -56 127 -82 83 -70
553 -154 110 -20 214 -40 230 -44 l30 -9 -28 -1 c-52 -2 -23 -23 80 -60 56
-20 105 -39 109 -44 4 -4 -1 -15 -10 -26 -17 -18 -17 -19 2 -25 11 -4 24 -6
28 -5 25 4 21 -6 -20 -53 -25 -29 -46 -58 -46 -65 0 -9 16 -13 50 -13 55 0 60
-8 40 -66 -5 -16 -19 -91 -30 -168 -22 -149 -30 -171 -115 -316 -30 -52 -55
-98 -55 -103 0 -5 19 10 43 33 84 85 159 92 258 24 62 -42 73 -136 27 -227
-32 -64 -155 -127 -249 -127 -35 0 -39 -3 -49 -37 -15 -52 -27 -207 -32 -403
l-3 -165 105 -57 c58 -32 186 -89 285 -129 199 -78 277 -121 326 -177 18 -20
84 -142 146 -269 62 -128 117 -233 123 -233 15 0 24 44 9 49 -57 19 -78 104
-37 148 16 17 18 23 6 23 -19 0 -54 38 -63 68 -11 36 3 88 29 113 l24 23 -24
25 c-55 54 -16 151 61 151 32 0 35 2 25 20 -25 46 40 125 112 136 42 7 44 10
23 38 -28 37 -47 128 -40 189 24 216 258 349 445 253 25 -13 44 -28 43 -34 -2
-6 3 -9 11 -6 14 5 62 -49 89 -101 41 -82 38 -205 -9 -288 -35 -63 -111 -130
-141 -124 -25 5 -23 0 19 -47 28 -30 33 -83 14 -124 -17 -35 -17 -35 13 -78
41 -56 40 -92 -1 -133 -17 -17 -35 -31 -40 -31 -4 0 -8 -13 -8 -29 0 -19 16
-48 46 -87 25 -33 50 -68 54 -80 11 -29 -11 -153 -70 -379 -75 -292 -111 -391
-225 -619 -172 -343 -198 -376 -287 -376 -68 0 -125 30 -202 106 l-62 62 -60
-58 -60 -58 0 -463 c-1 -664 -12 -1607 -19 -1618 -11 -18 -142 -86 -255 -131
l-115 -46 -7 -40 c-3 -21 -14 -85 -23 -141 -9 -56 -27 -146 -41 -200 -14 -54
-28 -110 -31 -126 -3 -15 -10 -27 -15 -27 -6 0 -8 -6 -5 -13 2 -6 -1 -17 -8
-24 -9 -8 -12 -5 -11 17 1 16 6 28 11 27 6 -1 10 12 10 30 1 17 -3 29 -7 27
-4 -3 -8 3 -8 13 0 15 -2 16 -10 3 -7 -11 -10 -4 -10 28 0 33 -4 42 -17 43
-17 1 -17 2 0 6 14 4 8 13 -30 49 -27 24 -63 58 -81 75 l-34 31 -23 -22 c-16
-15 -30 -20 -44 -15 -26 8 -29 -12 -39 -209 -7 -154 3 -288 34 -433 24 -110
28 -177 14 -203 -11 -20 -14 -21 -24 -9 -36 46 -158 89 -254 89 -41 0 -72 -4
-72 -10 0 -5 -22 -10 -49 -10 -46 0 -111 -25 -111 -42 0 -5 -18 -8 -40 -8 -22
0 -40 -4 -40 -10 0 -5 -18 -14 -40 -20 -24 -6 -40 -17 -40 -25 0 -9 -10 -15
-24 -15 -14 0 -28 -5 -31 -11 -4 -6 -13 -8 -21 -5 -18 7 -84 -32 -84 -49 0 -8
-8 -11 -20 -8 -11 3 -20 9 -20 14 0 17 -19 9 -25 -12 -4 -12 -13 -18 -20 -15
-10 3 -12 0 -8 -11 5 -12 3 -14 -7 -8 -10 6 -12 3 -8 -13 4 -13 2 -20 -4 -16
-5 3 -7 18 -4 33 l7 26 -21 -25 c-30 -38 -24 -18 16 49 20 34 40 58 45 55 5
-3 6 3 2 12 -4 12 -3 15 6 10 8 -5 11 -3 10 5 -2 8 5 32 15 54 30 69 58 229
76 430 6 66 24 198 41 293 16 95 29 178 29 183 0 6 -12 9 -27 7 -32 -4 -24 16
-122 -298 -122 -390 -155 -482 -169 -468 -8 8 -12 9 -12 1 0 -7 5 -15 10 -18
13 -8 13 -25 0 -25 -5 0 -10 8 -11 18 0 11 -2 12 -6 4 -3 -7 0 -19 7 -27 9
-10 9 -18 0 -32 -7 -11 -10 -12 -7 -3 2 8 0 23 -4 32 -11 21 0 80 14 71 6 -4
8 2 4 18 -4 13 -7 29 -7 36 0 10 -75 53 -93 53 -4 0 -7 -15 -7 -33 0 -31 -4
-35 -41 -47 l-40 -14 2 -100 c1 -67 -2 -101 -10 -104 -6 -2 -11 1 -11 7 0 6
-6 11 -14 11 -8 0 -16 7 -20 15 -3 8 -14 15 -25 15 -11 0 -28 11 -39 24 -24
31 -59 40 -117 32 -32 -5 -46 -13 -50 -27 -4 -11 -18 -24 -31 -29 -24 -9 -33
-30 -14 -30 15 0 12 -27 -4 -33 -8 -3 -20 -24 -26 -47 -8 -29 -18 -44 -36 -50
-29 -11 -32 -30 -4 -30 22 0 26 -10 9 -27 -6 -6 -11 -27 -11 -46 0 -31 -4 -36
-39 -47 -35 -12 -39 -17 -39 -47 0 -18 -4 -33 -9 -33 -5 0 -28 -11 -50 -24
l-42 -23 51 5 c40 4 50 2 50 -11 0 -15 -55 -27 -127 -27 -17 0 -34 -4 -38 -10
-3 -6 -11 -7 -17 -4 -6 4 -8 1 -6 -7 3 -8 12 -13 19 -11 9 1 7 -3 -4 -12 -10
-8 -26 -13 -35 -11 -9 1 -11 0 -4 -2 7 -3 10 -9 7 -14 -4 -5 3 -5 18 0 22 8
24 7 21 -15 -2 -25 26 -50 41 -36 5 4 5 1 1 -6 -6 -10 -14 -9 -36 5 -21 12
-26 19 -17 25 12 8 -2 12 -29 9 -6 -1 -17 6 -24 14 -10 12 -9 20 4 40 9 14 21
25 26 25 5 0 7 7 4 15 -4 8 -1 15 5 15 18 0 13 66 -8 102 -59 105 -63 113 -45
92 12 -14 27 -20 42 -18 21 4 22 3 8 -12 -9 -8 -16 -21 -16 -27 0 -8 3 -7 9 2
5 7 13 11 18 8 5 -3 7 18 5 51 -2 31 -8 58 -13 60 -5 2 -9 24 -9 49 0 36 -4
46 -20 50 -11 3 -20 9 -20 14 0 5 -22 9 -50 9 -27 0 -50 -2 -50 -5 0 -3 7 -22
15 -42 8 -20 13 -38 11 -40 -2 -2 -12 16 -21 41 l-17 45 36 75 c55 115 59 145
35 267 -28 147 -46 312 -30 274 5 -11 7 -23 4 -28 -2 -4 1 -7 6 -7 6 0 11 7
11 15 0 8 9 23 20 32 11 10 20 25 20 33 0 9 11 31 24 49 14 18 33 55 42 82 10
27 21 49 25 49 3 0 12 20 19 45 7 25 15 43 18 40 7 -6 27 33 36 71 4 16 15 37
23 46 9 10 13 26 10 37 -3 14 1 22 14 26 11 4 19 16 19 29 0 13 10 31 23 40
22 15 22 16 -6 6 -40 -14 -58 -12 -24 3 l29 12 -84 43 c-46 23 -74 35 -64 27
28 -21 28 -45 1 -55 -15 -6 -28 -22 -35 -42 l-10 -33 5 35 c3 19 8 55 11 80
l5 45 -88 63 c-48 34 -103 74 -121 90 l-32 27 34 195 c83 465 178 1028 205
1216 23 153 53 416 49 419 -2 1 -68 17 -148 34 -80 18 -214 48 -299 68 -144
33 -158 34 -207 23 -47 -11 -59 -11 -101 5 -99 37 -395 185 -477 239 -198 129
-246 210 -246 423 0 234 87 378 370 613 41 34 76 66 78 70 2 5 -11 90 -28 191
-29 164 -30 184 -16 194 12 9 48 5 158 -16 79 -16 148 -28 155 -29 7 0 21 20
32 44 24 55 56 77 115 79 48 1 53 6 35 39 -14 27 4 71 38 89 34 18 146 16 243
-5 l74 -16 96 49 c101 52 238 100 360 127 41 9 78 19 81 23 4 3 0 47 -8 96
-25 147 -22 453 5 597 23 123 58 233 99 308 l24 46 -34 57 c-22 36 -41 86 -52
140 -16 78 -16 87 -1 140 18 61 52 97 93 97 19 0 28 -10 43 -42 11 -24 20 -56
20 -72 0 -53 16 -14 34 84 34 182 77 290 193 488 92 156 128 186 169 141z
m1177 -7116 c-3 -7 -6 -13 -8 -13 -2 0 -5 6 -8 13 -3 8 1 14 8 14 7 0 11 -6 8
-14z m-1303 -258 l0 -25 -25 22 c-14 12 -25 23 -25 25 0 2 11 3 25 3 20 0 25
-5 25 -25z m-33 -277 c-3 -8 -6 -5 -6 6 -1 11 2 17 5 13 3 -3 4 -12 1 -19z
m-894 -33 c-3 -9 -8 -14 -10 -11 -3 3 -2 9 2 15 9 16 15 13 8 -4z m-16 -57
c-3 -8 -6 -5 -6 6 -1 11 2 17 5 13 3 -3 4 -12 1 -19z m26 -2 c3 -8 0 -17 -7
-19 -10 -4 -12 1 -9 14 6 23 9 24 16 5z m1008 -79 c-10 -9 -11 -8 -5 6 3 10 9
15 12 12 3 -3 0 -11 -7 -18z m-826 -337 c-3 -5 -1 -10 5 -10 6 0 8 -5 5 -10
-4 -7 3 -9 22 -5 21 4 23 3 8 -3 -18 -8 -17 -10 13 -26 17 -9 32 -19 32 -22 0
-3 -22 7 -49 23 -27 15 -47 32 -44 37 4 5 -2 7 -13 3 -18 -7 -18 -7 0 8 23 17
30 19 21 5z m75 -10 c8 -5 11 -10 5 -10 -5 0 -17 5 -25 10 -8 5 -10 10 -5 10
6 0 17 -5 25 -10z m70 -90 c8 -5 11 -10 5 -10 -5 0 -17 5 -25 10 -8 5 -10 10
-5 10 6 0 17 -5 25 -10z m65 -28 c-3 -3 -11 0 -18 7 -9 10 -8 11 6 5 10 -3 15
-9 12 -12z"/>
<path d="M2436 8475 c-9 -37 -4 -41 62 -48 50 -5 167 -37 222 -61 22 -9 45 31
29 51 -35 41 -164 83 -258 83 -44 0 -49 -3 -55 -25z"/>
<path d="M2435 8308 c-40 -14 -92 -53 -107 -81 -10 -20 -8 -19 23 6 74 59 141
78 215 58 77 -21 114 -88 38 -71 -20 5 -37 4 -40 -2 -4 -6 -19 -8 -34 -4 -15
3 -31 2 -34 -1 -11 -12 -48 -14 -41 -3 10 16 74 40 90 34 8 -4 15 -1 15 5 0
16 -22 14 -72 -8 -43 -19 -102 -71 -80 -71 7 0 12 4 12 8 0 5 16 9 35 10 29 1
36 -3 41 -23 8 -31 -2 -45 -32 -45 -16 0 -24 -6 -25 -17 -7 -111 58 -186 160
-185 l46 1 -35 -19 c-19 -11 -31 -19 -27 -20 14 0 51 22 74 45 43 42 69 158
52 236 -25 117 -158 188 -274 147z m80 -108 c-3 -5 -11 -10 -16 -10 -6 0 -7 5
-4 10 3 6 11 10 16 10 6 0 7 -4 4 -10z"/>
<path d="M2578 8248 c6 -6 18 -8 28 -6 14 3 12 5 -9 10 -19 3 -25 2 -19 -4z"/>
<path d="M3250 8240 c0 -11 -1 -23 -2 -27 -1 -5 7 -9 18 -11 45 -7 165 -48
233 -79 40 -18 75 -33 77 -33 9 0 34 34 34 46 0 45 -192 124 -301 124 -52 0
-59 -2 -59 -20z"/>
<path d="M2381 8123 c-15 -52 -14 -84 5 -128 21 -51 28 -39 8 13 -14 34 -15
51 -6 94 12 63 8 76 -7 21z"/>
<path d="M2420 8139 c0 -11 4 -18 10 -14 5 3 7 12 3 20 -7 21 -13 19 -13 -6z"/>
<path d="M3241 8079 c-31 -9 -121 -64 -121 -74 0 -2 31 13 69 32 l69 36 66
-13 c68 -13 105 -33 42 -23 -25 4 -47 -1 -76 -16 -40 -21 -41 -21 -35 -2 9 28
-7 33 -41 10 -16 -10 -24 -19 -18 -19 5 0 15 5 21 11 8 8 15 3 27 -19 29 -56
15 -92 -27 -70 -26 13 -30 6 -35 -61 -10 -136 99 -227 237 -196 30 6 33 5 27
-11 -5 -12 6 -6 28 15 19 19 33 38 30 43 -3 4 0 8 5 8 6 0 16 20 23 44 6 25
15 43 20 40 14 -9 9 96 -6 124 -20 38 -84 96 -132 120 -50 26 -127 35 -173 21z
m239 -384 c-7 -8 -17 -15 -22 -15 -6 0 -5 7 2 15 7 8 17 15 22 15 6 0 5 -7 -2
-15z"/>
<path d="M3153 7978 c-24 -31 -43 -89 -41 -125 l1 -38 4 35 c2 19 10 49 18 67
8 17 15 36 15 42 0 6 7 8 15 5 11 -5 13 -2 9 10 -7 19 -9 20 -21 4z"/>
<path d="M2425 7960 c-8 -13 11 -37 39 -52 16 -7 14 -3 -7 17 -15 14 -25 30
-22 36 4 5 4 9 1 9 -3 0 -8 -5 -11 -10z"/>
<path d="M2490 7901 c0 -5 14 -11 31 -15 51 -10 57 -6 14 9 -48 17 -45 17 -45
6z"/>
<path d="M2127 7780 c-40 -104 -74 -227 -88 -320 -19 -129 -4 -462 26 -596 l4
-20 143 24 c79 13 170 33 203 44 33 11 79 25 103 31 34 8 50 20 73 53 33 48
67 76 82 67 6 -3 7 -2 4 4 -4 6 -25 13 -47 16 -62 8 -102 46 -234 223 -169
226 -226 349 -226 486 0 32 -4 58 -8 58 -4 0 -20 -31 -35 -70z"/>
<path d="M3110 7799 c0 -8 7 -24 15 -35 19 -25 19 -14 0 22 -8 16 -15 22 -15
13z"/>
<path d="M3172 7696 c37 -36 58 -45 58 -26 0 6 -6 10 -14 10 -8 0 -29 12 -48
26 -30 24 -30 23 4 -10z"/>
<path d="M3250 7650 c15 -10 58 -14 48 -5 -3 3 -18 8 -34 11 -22 3 -25 2 -14
-6z"/>
<path d="M3380 7640 c-13 -9 -13 -10 0 -10 8 0 22 5 30 10 13 9 13 10 0 10 -8
0 -22 -5 -30 -10z"/>
<path d="M3318 7633 c6 -2 18 -2 25 0 6 3 1 5 -13 5 -14 0 -19 -2 -12 -5z"/>
<path d="M3551 7351 c-61 -93 -119 -150 -190 -186 -51 -25 -51 -25 -51 -75 0
-39 4 -52 20 -60 11 -6 37 -36 59 -68 21 -31 52 -67 68 -78 34 -25 134 -77
138 -72 2 2 9 116 15 253 6 138 14 269 19 292 7 34 5 45 -9 58 -15 14 -21 9
-69 -64z"/>
<path d="M5250 7096 c0 -2 8 -10 18 -17 15 -13 16 -12 3 4 -13 16 -21 21 -21
13z"/>
<path d="M4761 6834 c0 -11 3 -14 6 -6 3 7 2 16 -1 19 -3 4 -6 -2 -5 -13z"/>
<path d="M4810 6690 c0 -5 5 -10 11 -10 5 0 7 5 4 10 -3 6 -8 10 -11 10 -2 0
-4 -4 -4 -10z"/>
<path d="M3012 6456 c-15 -24 -39 -64 -52 -90 l-25 -46 58 -113 c32 -61 57
-119 57 -128 0 -8 -13 -54 -29 -102 l-30 -87 44 5 c54 8 178 -9 250 -33 30
-11 55 -15 55 -10 0 12 -44 98 -91 179 -37 64 -38 66 -29 135 5 38 10 98 12
134 l3 65 -90 68 c-49 37 -93 67 -98 67 -4 0 -20 -20 -35 -44z"/>
<path d="M1614 6385 c-31 -47 -44 -155 -23 -185 8 -12 9 -11 4 6 -3 12 -1 33
4 48 9 21 17 26 46 26 l35 0 0 53 c0 76 -33 102 -66 52z"/>
<path d="M3944 5930 c-12 -4 -23 -14 -26 -22 -3 -7 0 -80 7 -163 6 -82 9 -153
6 -157 -3 -4 -44 -12 -91 -18 -47 -6 -91 -13 -97 -15 -14 -5 -7 -35 8 -35 4 0
6 7 2 16 -4 12 -2 15 8 12 8 -3 24 -1 36 3 13 5 25 4 28 -1 4 -6 -5 -10 -19
-10 -27 0 -35 -14 -13 -24 6 -3 3 -4 -8 -1 -11 2 -27 0 -35 -6 -11 -8 20 -9
108 -5 161 8 182 13 183 40 0 14 2 16 6 6 11 -36 27 -60 40 -60 7 0 13 6 13
14 0 20 17 29 52 28 25 -1 28 2 26 29 -2 26 -6 29 -39 29 l-36 0 -7 108 c-4
60 -10 112 -14 118 -9 12 -42 33 -64 40 -10 4 -18 16 -18 29 0 19 -24 58 -33
54 -1 0 -11 -4 -23 -9z m49 -362 c-2 -5 3 -8 12 -8 9 0 13 5 10 10 -3 6 -1 10
4 10 6 0 11 -6 11 -13 0 -9 -22 -18 -57 -25 l-58 -11 60 5 c49 3 55 2 35 -7
-15 -6 -55 -8 -100 -4 -54 5 -71 3 -60 -4 17 -12 4 -13 -25 -1 -17 6 -13 9 20
14 22 4 58 11 80 15 34 7 30 8 -25 5 -61 -3 -62 -3 -21 6 24 5 46 12 48 14 8
8 71 2 66 -6z m147 -2 c0 -8 -7 -16 -15 -20 -8 -3 -15 -1 -15 4 0 6 6 10 13
10 8 0 7 4 -3 10 -13 8 -12 10 3 10 9 0 17 -6 17 -14z m26 -11 c1 -8 -2 -13
-7 -9 -5 3 -9 12 -9 21 0 19 13 9 16 -12z"/>
<path d="M2908 5873 c7 -3 16 -2 19 1 4 3 -2 6 -13 5 -11 0 -14 -3 -6 -6z"/>
<path d="M2987 5864 c-7 -13 100 -234 113 -234 31 0 129 59 186 113 75 70 74
77 -21 102 -69 19 -269 32 -278 19z"/>
<path d="M3301 5713 c-43 -41 -85 -71 -127 -90 -35 -15 -64 -31 -64 -34 0 -4
20 -58 44 -121 53 -138 106 -304 144 -458 l29 -115 7 100 c4 55 11 145 16 200
41 437 46 568 22 577 -4 2 -36 -25 -71 -59z"/>
<path d="M2660 5723 c0 -1 8 -7 18 -12 13 -7 19 -6 19 2 0 7 -9 13 -19 13 -10
0 -18 -1 -18 -3z"/>
<path d="M4284 5013 c3 -10 8 -79 12 -153 3 -74 9 -139 12 -144 2 -5 28 15 57
44 l51 54 -34 50 c-19 28 -47 77 -63 109 -29 55 -46 75 -35 40z"/>
<path d="M3273 4857 c0 -8 6 -14 14 -14 9 0 10 4 2 14 -6 7 -12 13 -14 13 -1
0 -2 -6 -2 -13z"/>
<path d="M3345 4760 c10 -11 20 -20 23 -20 3 0 -3 9 -13 20 -10 11 -20 20 -23
20 -3 0 3 -9 13 -20z"/>
<path d="M3417 4709 c12 -12 24 -21 27 -18 2 2 -8 13 -22 23 l-27 19 22 -24z"/>
<path d="M3818 4543 c7 -3 16 -2 19 1 4 3 -2 6 -13 5 -11 0 -14 -3 -6 -6z"/>
<path d="M3117 4492 c-28 -31 -19 -69 12 -53 10 6 21 4 29 -5 12 -13 10 -14
-12 -8 -15 3 -26 2 -26 -4 0 -16 54 -11 67 7 7 9 13 26 13 39 0 19 -4 22 -19
17 -11 -3 -22 -1 -26 4 -3 7 0 8 9 5 9 -3 16 -1 16 5 0 18 -45 13 -63 -7z m28
-12 c3 -5 16 -10 28 -11 21 0 21 -1 2 -9 -12 -5 -14 -9 -6 -9 8 -1 11 -4 8 -7
-4 -4 -13 -1 -21 5 -8 7 -20 10 -25 7 -5 -4 -12 -2 -16 4 -3 5 -1 10 5 10 6 0
8 5 5 10 -3 6 -2 10 4 10 5 0 13 -4 16 -10z"/>
<path d="M3031 3688 c-14 -22 -5 -62 11 -52 7 5 9 1 5 -9 -9 -24 41 -23 59 1
20 26 18 66 -2 58 -9 -4 -27 0 -39 8 -19 13 -23 12 -34 -6z m49 -13 c26 -14
28 -18 18 -35 -16 -24 -17 -24 -47 0 -13 12 -21 26 -17 35 7 19 10 19 46 0z"/>
<path d="M3040 3671 c0 -5 7 -11 15 -15 8 -3 15 -1 15 3 0 5 -7 11 -15 15 -8
3 -15 1 -15 -3z"/>
<path d="M3075 3700 c3 -5 10 -10 16 -10 5 0 9 5 9 10 0 6 -7 10 -16 10 -8 0
-12 -4 -9 -10z"/>
<path d="M3190 3395 c0 -8 -12 -58 -26 -111 -26 -91 -26 -96 -9 -112 16 -16
17 -16 7 4 -8 15 -6 38 7 90 12 45 20 62 24 49 2 -11 5 6 6 38 0 31 -1 57 -4
57 -3 0 -5 -7 -5 -15z"/>
<path d="M3121 3123 c-7 -26 -15 -57 -18 -68 -3 -11 -2 -17 1 -13 10 8 38 119
33 124 -2 3 -10 -17 -16 -43z"/>
<path d="M3027 2781 c-4 -17 -3 -21 5 -13 5 5 8 16 6 23 -3 8 -7 3 -11 -10z"/>
<path d="M2991 2654 c0 -11 3 -14 6 -6 3 7 2 16 -1 19 -3 4 -6 -2 -5 -13z"/>
<path d="M2696 1287 c3 -10 9 -15 12 -12 3 3 0 11 -7 18 -10 9 -11 8 -5 -6z"/>
<path d="M1651 1035 c0 -5 6 -18 13 -28 12 -16 14 -15 14 9 0 16 -3 21 -8 14
-6 -9 -9 -9 -13 1 -3 8 -6 10 -6 4z"/>
<path d="M1722 1009 c-19 -7 -21 -11 -10 -22 15 -16 48 -10 48 9 0 19 -12 23
-38 13z"/>
<path d="M1671 940 c-1 -8 -4 -26 -7 -40 -5 -22 -4 -23 6 -7 6 10 9 28 7 40
-2 12 -5 15 -6 7z"/>
<path d="M1626 861 c-3 -5 1 -11 9 -15 8 -3 15 -1 15 4 0 13 -18 22 -24 11z"/>
</g>
</svg>
